<svg width="98" height="38" viewBox="0 0 98 38" fill="none" xmlns="http://www.w3.org/2000/svg">
<path d="M57.3828 17.0887C57.1044 17.0887 56.8873 17.0102 56.7314 16.8533C56.5867 16.6964 56.5143 16.4778 56.5143 16.1976V6.00879C56.5143 5.71736 56.5922 5.49879 56.7481 5.35308C56.904 5.19615 57.1211 5.11769 57.3995 5.11769H61.3912C62.6605 5.11769 63.6403 5.43714 64.3307 6.07605C65.021 6.70374 65.3662 7.58924 65.3662 8.73253C65.3662 9.88704 65.021 10.7837 64.3307 11.4226C63.6403 12.0503 62.6605 12.3642 61.3912 12.3642H58.2513V16.1976C58.2513 16.4778 58.1789 16.6964 58.0341 16.8533C57.8894 17.0102 57.6723 17.0887 57.3828 17.0887ZM58.2513 10.9687H61.1407C61.9757 10.9687 62.6048 10.7837 63.028 10.4139C63.4622 10.0328 63.6793 9.47232 63.6793 8.73253C63.6793 8.00396 63.4622 7.45473 63.028 7.08484C62.6048 6.70374 61.9757 6.51319 61.1407 6.51319H58.2513V10.9687Z" fill="#212123"/>
<path d="M72.274 17.0887C71.9957 17.0887 71.7786 17.0102 71.6227 16.8533C71.4779 16.6964 71.4056 16.4778 71.4056 16.1976V5.8911C71.4056 5.59967 71.4779 5.3811 71.6227 5.23539C71.7786 5.07846 71.9957 5 72.274 5C72.5524 5 72.764 5.07846 72.9087 5.23539C73.0646 5.3811 73.1425 5.59967 73.1425 5.8911V16.1976C73.1425 16.4778 73.0702 16.6964 72.9254 16.8533C72.7807 17.0102 72.5635 17.0887 72.274 17.0887Z" fill="#212123"/>
<path d="M80.1502 17.0887C79.9275 17.0887 79.7438 17.0327 79.599 16.9206C79.4543 16.7973 79.3708 16.646 79.3485 16.4666C79.3263 16.2761 79.3875 16.0855 79.5322 15.895L83.4738 10.5652V11.2713L79.7494 6.22736C79.6046 6.02561 79.5378 5.82945 79.5489 5.6389C79.5712 5.44835 79.6547 5.29703 79.7995 5.18495C79.9442 5.06165 80.1224 5 80.3339 5C80.5121 5 80.668 5.04484 80.8016 5.13451C80.9463 5.21297 81.0911 5.35308 81.2358 5.55484L84.4759 10.0272H83.9415L87.1482 5.55484C87.293 5.35308 87.4321 5.21297 87.5658 5.13451C87.7105 5.04484 87.8775 5 88.0668 5C88.2895 5 88.4732 5.06165 88.618 5.18495C88.7627 5.29703 88.8407 5.44835 88.8518 5.6389C88.8741 5.81824 88.8073 6.0144 88.6514 6.22736L84.9269 11.2713V10.5652L88.8518 15.895C88.9965 16.0855 89.0578 16.2761 89.0355 16.4666C89.0244 16.646 88.9464 16.7973 88.8017 16.9206C88.6569 17.0327 88.4677 17.0887 88.2338 17.0887C88.0668 17.0887 87.9109 17.0439 87.7662 16.9542C87.6214 16.8645 87.4711 16.7244 87.3152 16.5339L83.8747 11.7925H84.5093L81.0855 16.5339C80.9408 16.7244 80.7904 16.8645 80.6346 16.9542C80.4898 17.0439 80.3284 17.0887 80.1502 17.0887Z" fill="#212123"/>
<path d="M96.1196 17.0887C95.8413 17.0887 95.6242 17.0102 95.4683 16.8533C95.3235 16.6964 95.2512 16.4778 95.2512 16.1976V5.8911C95.2512 5.59967 95.3235 5.3811 95.4683 5.23539C95.6242 5.07846 95.8413 5 96.1196 5C96.398 5 96.6096 5.07846 96.7543 5.23539C96.9102 5.3811 96.9881 5.59967 96.9881 5.8911V16.1976C96.9881 16.4778 96.9158 16.6964 96.771 16.8533C96.6263 17.0102 96.4091 17.0887 96.1196 17.0887Z" fill="#212123"/>
<path d="M56.8706 33.7842C56.2601 33.7842 55.7924 33.6273 55.4676 33.3135C55.1559 32.9865 55 32.5223 55 31.9208V21.8188C55 21.2173 55.1559 20.7596 55.4676 20.4457C55.7924 20.1188 56.2601 19.9554 56.8706 19.9554H61.625C62.6123 19.9554 63.4501 20.1057 64.1386 20.4065C64.8401 20.6942 65.3727 21.1061 65.7364 21.6423C66.1001 22.1784 66.282 22.8061 66.282 23.5254C66.282 24.3361 66.0482 25.0292 65.5805 25.6046C65.1259 26.18 64.5023 26.5723 63.7099 26.7815V26.4677C64.6452 26.6377 65.3662 27.0169 65.8728 27.6054C66.3924 28.1938 66.6522 28.9458 66.6522 29.8611C66.6522 31.0773 66.2171 32.0385 65.3467 32.7446C64.4894 33.4377 63.3137 33.7842 61.8199 33.7842H56.8706ZM58.4294 31.1361H61.3327C61.9952 31.1361 62.4759 31.0119 62.7746 30.7635C63.0864 30.5019 63.2423 30.1161 63.2423 29.6061C63.2423 29.0961 63.0864 28.7169 62.7746 28.4685C62.4759 28.22 61.9952 28.0958 61.3327 28.0958H58.4294V31.1361ZM58.4294 25.4477H60.982C61.6315 25.4477 62.1056 25.33 62.4044 25.0946C62.7162 24.8592 62.8721 24.4996 62.8721 24.0158C62.8721 23.5319 62.7162 23.1788 62.4044 22.9565C62.1056 22.7211 61.6315 22.6034 60.982 22.6034H58.4294V25.4477Z" fill="#212123"/>
<path d="M75.3066 34C73.9166 34 72.6956 33.7058 71.6434 33.1173C70.5912 32.5158 69.7728 31.6788 69.1882 30.6065C68.6166 29.5342 68.3309 28.2854 68.3309 26.86C68.3309 25.7877 68.4932 24.8134 68.818 23.9373C69.1557 23.0611 69.6299 22.3092 70.2404 21.6815C70.8639 21.0538 71.6044 20.5765 72.4617 20.2496C73.3191 19.9096 74.2674 19.7396 75.3066 19.7396C76.6966 19.7396 77.9111 20.0338 78.9504 20.6223C80.0026 21.2107 80.8209 22.0411 81.4055 23.1134C81.9901 24.1727 82.2823 25.4215 82.2823 26.86C82.2823 27.9323 82.1135 28.9065 81.7757 29.7827C81.451 30.6588 80.9768 31.4173 80.3533 32.0581C79.7428 32.6858 79.0088 33.1696 78.1515 33.5096C77.2941 33.8365 76.3458 34 75.3066 34ZM75.3066 30.9792C75.9951 30.9792 76.5796 30.8158 77.0603 30.4888C77.5409 30.1619 77.9111 29.6911 78.1709 29.0765C78.4307 28.4619 78.5606 27.7231 78.5606 26.86C78.5606 25.5654 78.2749 24.5584 77.7033 23.8392C77.1317 23.12 76.3328 22.7604 75.3066 22.7604C74.6311 22.7604 74.0465 22.9238 73.5529 23.2507C73.0723 23.5646 72.7021 24.0288 72.4423 24.6434C72.1825 25.245 72.0526 25.9838 72.0526 26.86C72.0526 28.1546 72.3383 29.1681 72.9099 29.9004C73.4815 30.6196 74.2804 30.9792 75.3066 30.9792Z" fill="#212123"/>
<path d="M91.0243 34C89.6343 34 88.4132 33.7058 87.361 33.1173C86.3088 32.5158 85.4904 31.6788 84.9059 30.6065C84.3343 29.5342 84.0485 28.2854 84.0485 26.86C84.0485 25.7877 84.2109 24.8134 84.5356 23.9373C84.8734 23.0611 85.3475 22.3092 85.9581 21.6815C86.5816 21.0538 87.322 20.5765 88.1794 20.2496C89.0368 19.9096 89.985 19.7396 91.0243 19.7396C92.4142 19.7396 93.6288 20.0338 94.668 20.6223C95.7202 21.2107 96.5386 22.0411 97.1232 23.1134C97.7077 24.1727 98 25.4215 98 26.86C98 27.9323 97.8311 28.9065 97.4934 29.7827C97.1686 30.6588 96.6945 31.4173 96.071 32.0581C95.4604 32.6858 94.7265 33.1696 93.8691 33.5096C93.0118 33.8365 92.0635 34 91.0243 34ZM91.0243 30.9792C91.7127 30.9792 92.2973 30.8158 92.7779 30.4888C93.2586 30.1619 93.6288 29.6911 93.8886 29.0765C94.1484 28.4619 94.2783 27.7231 94.2783 26.86C94.2783 25.5654 93.9925 24.5584 93.4209 23.8392C92.8494 23.12 92.0505 22.7604 91.0243 22.7604C90.3488 22.7604 89.7642 22.9238 89.2706 23.2507C88.7899 23.5646 88.4197 24.0288 88.1599 24.6434C87.9001 25.245 87.7702 25.9838 87.7702 26.86C87.7702 28.1546 88.056 29.1681 88.6276 29.9004C89.1991 30.6196 89.998 30.9792 91.0243 30.9792Z" fill="#212123"/>
<path d="M35.5 18.9921C35.5 29.2093 26 37.4921 17 37.4921C6.78273 37.4921 0 29.2093 0 18.9921C0 8.7748 6.78273 0.492071 17 0.492071C27.5 -2.5079 35.5 8.7748 35.5 18.9921Z" fill="#212123"/>
</svg>
